<mxfile host="app.diagrams.net" agent="Mozilla/5.0 (Windows NT 10.0; Win64; x64) AppleWebKit/537.36 (KHTML, like Gecko) Chrome/131.0.0.0 Safari/537.36" version="25.0.3">
  <diagram name="PÃ¡gina-1" id="HdV-HhvADo5qzxYHm5AN">
    <mxGraphModel dx="3067" dy="920" grid="1" gridSize="10" guides="1" tooltips="1" connect="1" arrows="1" fold="1" page="1" pageScale="1" pageWidth="827" pageHeight="1169" math="0" shadow="0">
      <root>
        <mxCell id="0" />
        <mxCell id="1" parent="0" />
        <mxCell id="f0p1qjpYNuiBkIxOjucd-1" value="" style="rounded=0;whiteSpace=wrap;html=1;" parent="1" vertex="1">
          <mxGeometry x="-604" y="10" width="120" height="60" as="geometry" />
        </mxCell>
        <mxCell id="f0p1qjpYNuiBkIxOjucd-2" value="User" style="text;html=1;align=center;verticalAlign=middle;whiteSpace=wrap;rounded=0;" parent="1" vertex="1">
          <mxGeometry x="-574" y="25" width="60" height="30" as="geometry" />
        </mxCell>
        <mxCell id="f0p1qjpYNuiBkIxOjucd-3" value="" style="rounded=0;whiteSpace=wrap;html=1;" parent="1" vertex="1">
          <mxGeometry x="-774" y="160" width="120" height="60" as="geometry" />
        </mxCell>
        <mxCell id="f0p1qjpYNuiBkIxOjucd-4" value="Student" style="text;html=1;align=center;verticalAlign=middle;whiteSpace=wrap;rounded=0;" parent="1" vertex="1">
          <mxGeometry x="-744" y="175" width="60" height="30" as="geometry" />
        </mxCell>
        <mxCell id="f0p1qjpYNuiBkIxOjucd-7" value="" style="rounded=0;whiteSpace=wrap;html=1;" parent="1" vertex="1">
          <mxGeometry x="-604" y="160" width="120" height="60" as="geometry" />
        </mxCell>
        <mxCell id="f0p1qjpYNuiBkIxOjucd-8" value="Teacher" style="text;html=1;align=center;verticalAlign=middle;whiteSpace=wrap;rounded=0;" parent="1" vertex="1">
          <mxGeometry x="-574" y="175" width="60" height="30" as="geometry" />
        </mxCell>
        <mxCell id="f0p1qjpYNuiBkIxOjucd-9" value="" style="rounded=0;whiteSpace=wrap;html=1;" parent="1" vertex="1">
          <mxGeometry x="-414" y="160" width="120" height="60" as="geometry" />
        </mxCell>
        <mxCell id="f0p1qjpYNuiBkIxOjucd-10" value="Secretary" style="text;html=1;align=center;verticalAlign=middle;whiteSpace=wrap;rounded=0;" parent="1" vertex="1">
          <mxGeometry x="-384" y="175" width="60" height="30" as="geometry" />
        </mxCell>
        <mxCell id="f0p1qjpYNuiBkIxOjucd-11" value="" style="rounded=0;whiteSpace=wrap;html=1;" parent="1" vertex="1">
          <mxGeometry x="-594" y="840" width="120" height="60" as="geometry" />
        </mxCell>
        <mxCell id="f0p1qjpYNuiBkIxOjucd-12" value="StudyPlan" style="text;html=1;align=center;verticalAlign=middle;whiteSpace=wrap;rounded=0;" parent="1" vertex="1">
          <mxGeometry x="-564" y="855" width="60" height="30" as="geometry" />
        </mxCell>
        <mxCell id="f0p1qjpYNuiBkIxOjucd-13" value="" style="rounded=0;whiteSpace=wrap;html=1;" parent="1" vertex="1">
          <mxGeometry x="-594" y="465" width="120" height="60" as="geometry" />
        </mxCell>
        <mxCell id="f0p1qjpYNuiBkIxOjucd-14" value="Enrollment" style="text;html=1;align=center;verticalAlign=middle;whiteSpace=wrap;rounded=0;" parent="1" vertex="1">
          <mxGeometry x="-564" y="480" width="60" height="30" as="geometry" />
        </mxCell>
        <mxCell id="f0p1qjpYNuiBkIxOjucd-17" value="" style="rounded=0;whiteSpace=wrap;html=1;" parent="1" vertex="1">
          <mxGeometry x="-594" y="645" width="120" height="60" as="geometry" />
        </mxCell>
        <mxCell id="f0p1qjpYNuiBkIxOjucd-18" value="Class" style="text;html=1;align=center;verticalAlign=middle;whiteSpace=wrap;rounded=0;" parent="1" vertex="1">
          <mxGeometry x="-564" y="660" width="60" height="30" as="geometry" />
        </mxCell>
        <mxCell id="f0p1qjpYNuiBkIxOjucd-19" value="" style="rounded=0;whiteSpace=wrap;html=1;" parent="1" vertex="1">
          <mxGeometry x="-814" y="645" width="120" height="60" as="geometry" />
        </mxCell>
        <mxCell id="NJw76c8pwJODUK1v6CrS-25" value="" style="edgeStyle=orthogonalEdgeStyle;rounded=0;orthogonalLoop=1;jettySize=auto;html=1;" edge="1" parent="1" source="f0p1qjpYNuiBkIxOjucd-20" target="f0p1qjpYNuiBkIxOjucd-31">
          <mxGeometry relative="1" as="geometry" />
        </mxCell>
        <mxCell id="f0p1qjpYNuiBkIxOjucd-20" value="Time Slot" style="text;html=1;align=center;verticalAlign=middle;whiteSpace=wrap;rounded=0;" parent="1" vertex="1">
          <mxGeometry x="-784" y="660" width="60" height="30" as="geometry" />
        </mxCell>
        <mxCell id="f0p1qjpYNuiBkIxOjucd-24" value="" style="rounded=0;whiteSpace=wrap;html=1;" parent="1" vertex="1">
          <mxGeometry x="-134" y="840" width="120" height="60" as="geometry" />
        </mxCell>
        <mxCell id="f0p1qjpYNuiBkIxOjucd-25" value="Trimestral&lt;div&gt;Assessment&lt;/div&gt;" style="text;html=1;align=center;verticalAlign=middle;whiteSpace=wrap;rounded=0;" parent="1" vertex="1">
          <mxGeometry x="-104" y="855" width="60" height="30" as="geometry" />
        </mxCell>
        <mxCell id="f0p1qjpYNuiBkIxOjucd-26" value="" style="rounded=0;whiteSpace=wrap;html=1;" parent="1" vertex="1">
          <mxGeometry x="-814" y="840" width="120" height="60" as="geometry" />
        </mxCell>
        <mxCell id="f0p1qjpYNuiBkIxOjucd-27" value="Unit" style="text;html=1;align=center;verticalAlign=middle;whiteSpace=wrap;rounded=0;" parent="1" vertex="1">
          <mxGeometry x="-784" y="855" width="60" height="30" as="geometry" />
        </mxCell>
        <mxCell id="f0p1qjpYNuiBkIxOjucd-28" value="" style="rounded=0;whiteSpace=wrap;html=1;" parent="1" vertex="1">
          <mxGeometry x="-344" y="840" width="120" height="60" as="geometry" />
        </mxCell>
        <mxCell id="f0p1qjpYNuiBkIxOjucd-29" value="Clsassification" style="text;html=1;align=center;verticalAlign=middle;whiteSpace=wrap;rounded=0;" parent="1" vertex="1">
          <mxGeometry x="-314" y="855" width="60" height="30" as="geometry" />
        </mxCell>
        <mxCell id="f0p1qjpYNuiBkIxOjucd-30" value="" style="rounded=0;whiteSpace=wrap;html=1;" parent="1" vertex="1">
          <mxGeometry x="-814" y="465" width="120" height="60" as="geometry" />
        </mxCell>
        <mxCell id="f0p1qjpYNuiBkIxOjucd-31" value="Course" style="text;html=1;align=center;verticalAlign=middle;whiteSpace=wrap;rounded=0;" parent="1" vertex="1">
          <mxGeometry x="-784" y="480" width="60" height="30" as="geometry" />
        </mxCell>
        <mxCell id="f0p1qjpYNuiBkIxOjucd-34" value="" style="endArrow=none;dashed=1;html=1;rounded=0;entryX=0;entryY=0.5;entryDx=0;entryDy=0;" parent="1" source="f0p1qjpYNuiBkIxOjucd-3" target="f0p1qjpYNuiBkIxOjucd-1" edge="1">
          <mxGeometry width="50" height="50" relative="1" as="geometry">
            <mxPoint x="-724" y="105" as="sourcePoint" />
            <mxPoint x="-674" y="55" as="targetPoint" />
            <Array as="points">
              <mxPoint x="-714" y="40" />
            </Array>
          </mxGeometry>
        </mxCell>
        <mxCell id="f0p1qjpYNuiBkIxOjucd-35" value="" style="endArrow=none;dashed=1;html=1;rounded=0;entryX=0.5;entryY=1;entryDx=0;entryDy=0;exitX=0.5;exitY=0;exitDx=0;exitDy=0;" parent="1" source="f0p1qjpYNuiBkIxOjucd-7" target="f0p1qjpYNuiBkIxOjucd-1" edge="1">
          <mxGeometry width="50" height="50" relative="1" as="geometry">
            <mxPoint x="-569" y="140" as="sourcePoint" />
            <mxPoint x="-519" y="90" as="targetPoint" />
          </mxGeometry>
        </mxCell>
        <mxCell id="f0p1qjpYNuiBkIxOjucd-36" value="" style="endArrow=none;dashed=1;html=1;rounded=0;exitX=0.5;exitY=0;exitDx=0;exitDy=0;entryX=1;entryY=0.5;entryDx=0;entryDy=0;" parent="1" source="f0p1qjpYNuiBkIxOjucd-9" target="f0p1qjpYNuiBkIxOjucd-1" edge="1">
          <mxGeometry width="50" height="50" relative="1" as="geometry">
            <mxPoint x="-379" y="150" as="sourcePoint" />
            <mxPoint x="-329" y="100" as="targetPoint" />
            <Array as="points">
              <mxPoint x="-354" y="40" />
            </Array>
          </mxGeometry>
        </mxCell>
        <mxCell id="f0p1qjpYNuiBkIxOjucd-37" value="" style="endArrow=none;html=1;rounded=0;entryX=0;entryY=0.5;entryDx=0;entryDy=0;" parent="1" target="f0p1qjpYNuiBkIxOjucd-1" edge="1">
          <mxGeometry width="50" height="50" relative="1" as="geometry">
            <mxPoint x="-714" y="140" as="sourcePoint" />
            <mxPoint x="-644" y="40" as="targetPoint" />
            <Array as="points">
              <mxPoint x="-714" y="40" />
            </Array>
          </mxGeometry>
        </mxCell>
        <mxCell id="f0p1qjpYNuiBkIxOjucd-38" value="" style="endArrow=none;html=1;rounded=0;" parent="1" edge="1">
          <mxGeometry width="50" height="50" relative="1" as="geometry">
            <mxPoint x="-544" y="140" as="sourcePoint" />
            <mxPoint x="-544" y="70" as="targetPoint" />
            <Array as="points">
              <mxPoint x="-544" y="120" />
            </Array>
          </mxGeometry>
        </mxCell>
        <mxCell id="f0p1qjpYNuiBkIxOjucd-39" value="" style="endArrow=none;html=1;rounded=0;" parent="1" edge="1">
          <mxGeometry width="50" height="50" relative="1" as="geometry">
            <mxPoint x="-484" y="40" as="sourcePoint" />
            <mxPoint x="-354" y="140" as="targetPoint" />
            <Array as="points">
              <mxPoint x="-354" y="40" />
            </Array>
          </mxGeometry>
        </mxCell>
        <mxCell id="f0p1qjpYNuiBkIxOjucd-42" value="" style="fontSize=12;html=1;endArrow=ERmany;rounded=0;entryX=1;entryY=0.5;entryDx=0;entryDy=0;" parent="1" source="f0p1qjpYNuiBkIxOjucd-13" target="f0p1qjpYNuiBkIxOjucd-30" edge="1">
          <mxGeometry width="100" height="100" relative="1" as="geometry">
            <mxPoint x="-544" y="805" as="sourcePoint" />
            <mxPoint x="-444" y="705" as="targetPoint" />
          </mxGeometry>
        </mxCell>
        <mxCell id="iK2A5SASdtKw7BQPvj6h-2" value="" style="fontSize=12;html=1;endArrow=ERmany;rounded=0;entryX=0.5;entryY=1;entryDx=0;entryDy=0;" parent="1" source="f0p1qjpYNuiBkIxOjucd-11" target="f0p1qjpYNuiBkIxOjucd-17" edge="1">
          <mxGeometry width="100" height="100" relative="1" as="geometry">
            <mxPoint x="-604" y="778" as="sourcePoint" />
            <mxPoint x="-674" y="778" as="targetPoint" />
          </mxGeometry>
        </mxCell>
        <mxCell id="iK2A5SASdtKw7BQPvj6h-4" value="" style="fontSize=12;html=1;endArrow=ERmany;rounded=0;exitX=0.25;exitY=0;exitDx=0;exitDy=0;entryX=0.5;entryY=1;entryDx=0;entryDy=0;edgeStyle=orthogonalEdgeStyle;" parent="1" source="f0p1qjpYNuiBkIxOjucd-11" target="f0p1qjpYNuiBkIxOjucd-19" edge="1">
          <mxGeometry width="100" height="100" relative="1" as="geometry">
            <mxPoint x="-634" y="975" as="sourcePoint" />
            <mxPoint x="-534" y="975" as="targetPoint" />
          </mxGeometry>
        </mxCell>
        <mxCell id="iK2A5SASdtKw7BQPvj6h-6" value="" style="fontSize=12;html=1;endArrow=ERmany;rounded=0;exitX=0;exitY=0.5;exitDx=0;exitDy=0;edgeStyle=orthogonalEdgeStyle;" parent="1" source="f0p1qjpYNuiBkIxOjucd-11" target="f0p1qjpYNuiBkIxOjucd-26" edge="1">
          <mxGeometry width="100" height="100" relative="1" as="geometry">
            <mxPoint x="-634" y="920" as="sourcePoint" />
            <mxPoint x="-534" y="820" as="targetPoint" />
          </mxGeometry>
        </mxCell>
        <mxCell id="NJw76c8pwJODUK1v6CrS-3" value="" style="fontSize=12;html=1;endArrow=ERmany;rounded=0;exitX=0.5;exitY=1;exitDx=0;exitDy=0;elbow=vertical;entryX=0.5;entryY=0;entryDx=0;entryDy=0;" edge="1" parent="1" source="f0p1qjpYNuiBkIxOjucd-13" target="f0p1qjpYNuiBkIxOjucd-17">
          <mxGeometry width="100" height="100" relative="1" as="geometry">
            <mxPoint x="-554" y="575" as="sourcePoint" />
            <mxPoint x="-744" y="625" as="targetPoint" />
          </mxGeometry>
        </mxCell>
        <mxCell id="NJw76c8pwJODUK1v6CrS-4" value="" style="rounded=0;whiteSpace=wrap;html=1;" vertex="1" parent="1">
          <mxGeometry x="-344" y="305" width="120" height="60" as="geometry" />
        </mxCell>
        <mxCell id="NJw76c8pwJODUK1v6CrS-5" value="Registry" style="text;html=1;align=center;verticalAlign=middle;whiteSpace=wrap;rounded=0;" vertex="1" parent="1">
          <mxGeometry x="-314" y="320" width="60" height="30" as="geometry" />
        </mxCell>
        <mxCell id="NJw76c8pwJODUK1v6CrS-6" value="" style="rounded=0;whiteSpace=wrap;html=1;" vertex="1" parent="1">
          <mxGeometry x="-594" y="305" width="120" height="60" as="geometry" />
        </mxCell>
        <mxCell id="NJw76c8pwJODUK1v6CrS-7" value="Building" style="text;html=1;align=center;verticalAlign=middle;whiteSpace=wrap;rounded=0;" vertex="1" parent="1">
          <mxGeometry x="-564" y="320" width="60" height="30" as="geometry" />
        </mxCell>
        <mxCell id="NJw76c8pwJODUK1v6CrS-9" value="" style="fontSize=12;html=1;endArrow=ERmany;rounded=0;entryX=0.5;entryY=0;entryDx=0;entryDy=0;exitX=0.5;exitY=1;exitDx=0;exitDy=0;edgeStyle=orthogonalEdgeStyle;" edge="1" parent="1" source="f0p1qjpYNuiBkIxOjucd-9" target="NJw76c8pwJODUK1v6CrS-6">
          <mxGeometry width="100" height="100" relative="1" as="geometry">
            <mxPoint x="-190" y="125" as="sourcePoint" />
            <mxPoint x="-290" y="125" as="targetPoint" />
          </mxGeometry>
        </mxCell>
        <mxCell id="NJw76c8pwJODUK1v6CrS-10" value="" style="fontSize=12;html=1;endArrow=ERmany;rounded=0;exitX=0;exitY=0.5;exitDx=0;exitDy=0;entryX=1;entryY=0.5;entryDx=0;entryDy=0;" edge="1" parent="1" source="NJw76c8pwJODUK1v6CrS-4" target="NJw76c8pwJODUK1v6CrS-6">
          <mxGeometry width="100" height="100" relative="1" as="geometry">
            <mxPoint x="-324" y="140" as="sourcePoint" />
            <mxPoint x="-270" y="65" as="targetPoint" />
          </mxGeometry>
        </mxCell>
        <mxCell id="NJw76c8pwJODUK1v6CrS-11" value="" style="fontSize=12;html=1;endArrow=ERmany;rounded=0;entryX=0.5;entryY=0;entryDx=0;entryDy=0;exitX=0.5;exitY=1;exitDx=0;exitDy=0;edgeStyle=orthogonalEdgeStyle;" edge="1" parent="1" source="NJw76c8pwJODUK1v6CrS-4" target="f0p1qjpYNuiBkIxOjucd-13">
          <mxGeometry width="100" height="100" relative="1" as="geometry">
            <mxPoint x="-84" y="215" as="sourcePoint" />
            <mxPoint x="-184" y="215" as="targetPoint" />
          </mxGeometry>
        </mxCell>
        <mxCell id="NJw76c8pwJODUK1v6CrS-14" value="" style="fontSize=12;html=1;endArrow=ERmany;rounded=0;entryX=1;entryY=0.5;entryDx=0;entryDy=0;" edge="1" parent="1" source="f0p1qjpYNuiBkIxOjucd-24">
          <mxGeometry width="100" height="100" relative="1" as="geometry">
            <mxPoint x="-124" y="869.29" as="sourcePoint" />
            <mxPoint x="-224" y="869.29" as="targetPoint" />
          </mxGeometry>
        </mxCell>
        <mxCell id="NJw76c8pwJODUK1v6CrS-15" value="" style="rounded=0;whiteSpace=wrap;html=1;" vertex="1" parent="1">
          <mxGeometry x="-344" y="645" width="120" height="60" as="geometry" />
        </mxCell>
        <mxCell id="NJw76c8pwJODUK1v6CrS-16" value="Module" style="text;html=1;align=center;verticalAlign=middle;whiteSpace=wrap;rounded=0;" vertex="1" parent="1">
          <mxGeometry x="-314" y="660" width="60" height="30" as="geometry" />
        </mxCell>
        <mxCell id="NJw76c8pwJODUK1v6CrS-17" value="" style="rounded=0;whiteSpace=wrap;html=1;" vertex="1" parent="1">
          <mxGeometry x="-344" y="465" width="120" height="60" as="geometry" />
        </mxCell>
        <mxCell id="NJw76c8pwJODUK1v6CrS-18" value="EnrMod" style="text;html=1;align=center;verticalAlign=middle;whiteSpace=wrap;rounded=0;" vertex="1" parent="1">
          <mxGeometry x="-314" y="480" width="60" height="30" as="geometry" />
        </mxCell>
        <mxCell id="NJw76c8pwJODUK1v6CrS-19" value="" style="edgeStyle=entityRelationEdgeStyle;fontSize=12;html=1;endArrow=ERmany;rounded=0;entryX=0;entryY=0.5;entryDx=0;entryDy=0;exitX=1;exitY=0.5;exitDx=0;exitDy=0;" edge="1" parent="1" source="f0p1qjpYNuiBkIxOjucd-13" target="NJw76c8pwJODUK1v6CrS-17">
          <mxGeometry width="100" height="100" relative="1" as="geometry">
            <mxPoint x="-414" y="565" as="sourcePoint" />
            <mxPoint x="-364" y="495" as="targetPoint" />
          </mxGeometry>
        </mxCell>
        <mxCell id="NJw76c8pwJODUK1v6CrS-20" value="" style="fontSize=12;html=1;endArrow=ERmany;rounded=0;exitX=0.5;exitY=0;exitDx=0;exitDy=0;entryX=0.5;entryY=1;entryDx=0;entryDy=0;" edge="1" parent="1" source="NJw76c8pwJODUK1v6CrS-15" target="NJw76c8pwJODUK1v6CrS-17">
          <mxGeometry width="100" height="100" relative="1" as="geometry">
            <mxPoint x="-414" y="565" as="sourcePoint" />
            <mxPoint x="-314" y="465" as="targetPoint" />
          </mxGeometry>
        </mxCell>
        <mxCell id="NJw76c8pwJODUK1v6CrS-21" value="" style="fontSize=12;html=1;endArrow=ERmany;rounded=0;entryX=0.5;entryY=0;entryDx=0;entryDy=0;exitX=0.5;exitY=1;exitDx=0;exitDy=0;" edge="1" parent="1" source="NJw76c8pwJODUK1v6CrS-15" target="f0p1qjpYNuiBkIxOjucd-28">
          <mxGeometry width="100" height="100" relative="1" as="geometry">
            <mxPoint x="-414" y="815" as="sourcePoint" />
            <mxPoint x="-314" y="715" as="targetPoint" />
          </mxGeometry>
        </mxCell>
        <mxCell id="NJw76c8pwJODUK1v6CrS-22" value="" style="edgeStyle=orthogonalEdgeStyle;fontSize=12;html=1;endArrow=ERmany;rounded=0;exitX=0;exitY=0.5;exitDx=0;exitDy=0;entryX=1;entryY=0.5;entryDx=0;entryDy=0;" edge="1" parent="1" source="NJw76c8pwJODUK1v6CrS-15" target="f0p1qjpYNuiBkIxOjucd-11">
          <mxGeometry width="100" height="100" relative="1" as="geometry">
            <mxPoint x="-414" y="815" as="sourcePoint" />
            <mxPoint x="-484" y="715" as="targetPoint" />
          </mxGeometry>
        </mxCell>
      </root>
    </mxGraphModel>
  </diagram>
</mxfile>
